<svg width="46" height="46" viewBox="0 0 46 46" fill="none" xmlns="http://www.w3.org/2000/svg">
<path d="M20.9492 15.6953V23.2539C20.3503 23.3581 19.8034 23.4102 19.3086 23.4102C16.3789 23.4102 13.9375 22.4466 11.9844 20.5195C10.0312 18.5924 9.05469 16.1771 9.05469 13.2734C9.05469 10.4479 10.0378 8.05208 12.0039 6.08594C13.9831 4.11979 16.3854 3.13672 19.2109 3.13672C22.362 3.13672 24.8424 4.0612 26.6523 5.91016C28.4753 7.74609 29.3867 10.2591 29.3867 13.4492V23H22.082V13.9766C22.082 12.9479 21.8281 12.1276 21.3203 11.5156C20.8255 10.9036 20.1549 10.5977 19.3086 10.5977C18.5404 10.5977 17.8763 10.8776 17.3164 11.4375C16.7565 11.9974 16.4766 12.6615 16.4766 13.4297C16.4766 14.237 16.7305 14.901 17.2383 15.4219C17.7461 15.9427 18.3906 16.2031 19.1719 16.2031C19.8099 16.2031 20.4023 16.0339 20.9492 15.6953Z" fill="#A3AEAE"/>
</svg>
